# xmcd
#
# Track frame offsets: 
#        182
#        17352
#        32435
#        63040
#        75947
#        87237
#        101817
#        123095
#
# Disc length: 2827 seconds
#
# Revision: 5
# Processed by: cddbd v1.5.2PL0 Copyright (c) Steve Scherf et al.
# Submitted via: ExactAudioCopy v0.95b3
#
DISCID=480b0908
DTITLE=Canned Heat - Livin' The Blues - Disc 01
DYEAR=1968
DGENRE=Blues Rock
TTITLE0=Pony Blues
TTITLE1=My Mistake
TTITLE2=Sandy's Blues
TTITLE3=Going Up The Country
TTITLE4=Walkin´ By Myself
TTITLE5=Boogie Music
TTITLE6=One Kind Favor
TTITLE7=Parthenogenesis:  Nebulosity-Rollin' And Tumblin'-Five Owls-Be
TTITLE7=ar Wires-Snooky Flowers-Sunflower Power-Raga Kafi-Icebag
EXTD=
EXTT0=
EXTT1=
EXTT2=
EXTT3=
EXTT4=
EXTT5=
EXTT6=
EXTT7=
PLAYORDER=
